<svg width="24" height="25" viewBox="0 0 24 25" fill="none" xmlns="http://www.w3.org/2000/svg">
<path fill-rule="evenodd" clip-rule="evenodd" d="M0 12.7998C0 19.4272 5.37258 24.7998 12 24.7998C18.6274 24.7998 24 19.4272 24 12.7998C24 6.17239 18.6274 0.799805 12 0.799805C5.37258 0.799805 0 6.17239 0 12.7998ZM9.79999 18.2998L10.0042 15.2409L10.004 15.2408L15.5684 10.2193C15.8127 10.0026 15.5151 9.89687 15.1909 10.0935L8.32363 14.426L5.35733 13.5001C4.71674 13.304 4.71214 12.8638 5.50115 12.5473L17.0601 8.09023C17.5881 7.85055 18.0976 8.21703 17.8961 9.02505L15.9276 18.3013C15.7901 18.9605 15.3918 19.1182 14.84 18.8137L11.8413 16.5983L10.4 17.9998C10.3954 18.0042 10.3909 18.0086 10.3864 18.013C10.2252 18.1699 10.0918 18.2998 9.79999 18.2998Z" fill="#00ADF8"/>
</svg>
