<svg width="25" height="24" viewBox="0 0 25 24" fill="none" xmlns="http://www.w3.org/2000/svg">
<path fill-rule="evenodd" clip-rule="evenodd" d="M12.2 0C5.57253 0 0.199951 5.37258 0.199951 12C0.199951 18.6274 5.57253 24 12.2 24C18.8274 24 24.2 18.6274 24.2 12C24.2 5.37258 18.8274 0 12.2 0ZM9.56159 5.63867C10.2443 5.6076 10.4624 5.6 12.2006 5.6H12.1986C13.9372 5.6 14.1546 5.6076 14.8372 5.63867C15.5186 5.66987 15.9839 5.77774 16.3919 5.936C16.8133 6.09934 17.1693 6.31801 17.5253 6.67401C17.8813 7.02975 18.0999 7.38682 18.2639 7.80776C18.4213 8.21469 18.5293 8.67977 18.5613 9.36111C18.592 10.0438 18.6 10.2619 18.6 12.0001C18.6 13.7382 18.592 13.9558 18.5613 14.6385C18.5293 15.3196 18.4213 15.7848 18.2639 16.1918C18.0999 16.6126 17.8813 16.9697 17.5253 17.3255C17.1697 17.6815 16.8131 17.9007 16.3923 18.0641C15.9851 18.2224 15.5195 18.3303 14.8382 18.3615C14.1555 18.3925 13.938 18.4001 12.1998 18.4001C10.4617 18.4001 10.2437 18.3925 9.56106 18.3615C8.87985 18.3303 8.41465 18.2224 8.00744 18.0641C7.58677 17.9007 7.2297 17.6815 6.8741 17.3255C6.51823 16.9697 6.29956 16.6126 6.13595 16.1917C5.97782 15.7848 5.86995 15.3197 5.83862 14.6384C5.80768 13.9557 5.79995 13.7382 5.79995 12.0001C5.79995 10.2619 5.80795 10.0436 5.83848 9.36097C5.86915 8.6799 5.97715 8.21469 6.13582 7.80762C6.29982 7.38682 6.51849 7.02975 6.8745 6.67401C7.23023 6.31814 7.5873 6.09947 8.00824 5.936C8.41518 5.77774 8.88025 5.66987 9.56159 5.63867Z" fill="#1E1E1E"/>
<path fill-rule="evenodd" clip-rule="evenodd" d="M11.6264 6.75334C11.7379 6.75317 11.8578 6.75322 11.9873 6.75328L12.2006 6.75334C13.9094 6.75334 14.1119 6.75947 14.7867 6.79014C15.4107 6.81867 15.7494 6.92294 15.975 7.01054C16.2737 7.12654 16.4866 7.26521 16.7105 7.48921C16.9345 7.71322 17.0732 7.92655 17.1894 8.22522C17.277 8.45056 17.3814 8.78923 17.4098 9.41323C17.4405 10.0879 17.4472 10.2906 17.4472 11.9986C17.4472 13.7066 17.4405 13.9093 17.4098 14.584C17.3813 15.208 17.277 15.5466 17.1894 15.772C17.0734 16.0706 16.9345 16.2833 16.7105 16.5072C16.4865 16.7312 16.2738 16.8698 15.975 16.9858C15.7497 17.0738 15.4107 17.1778 14.7867 17.2064C14.1121 17.237 13.9094 17.2437 12.2006 17.2437C10.4916 17.2437 10.2891 17.237 9.61442 17.2064C8.99041 17.1776 8.65174 17.0733 8.42601 16.9857C8.12734 16.8697 7.914 16.731 7.69 16.507C7.466 16.283 7.32733 16.0702 7.21106 15.7714C7.12346 15.5461 7.01906 15.2074 6.99066 14.5834C6.95999 13.9087 6.95386 13.7061 6.95386 11.997C6.95386 10.2879 6.95999 10.0863 6.99066 9.41163C7.01919 8.78763 7.12346 8.44896 7.21106 8.22335C7.32706 7.92469 7.466 7.71135 7.69 7.48735C7.914 7.26334 8.12734 7.12468 8.42601 7.00841C8.65161 6.92041 8.99041 6.81641 9.61442 6.78774C10.2048 6.76107 10.4336 6.75307 11.6264 6.75174V6.75334ZM15.6169 7.81602C15.1929 7.81602 14.8489 8.15962 14.8489 8.58376C14.8489 9.00776 15.1929 9.35177 15.6169 9.35177C16.0409 9.35177 16.3849 9.00776 16.3849 8.58376C16.3849 8.15975 16.0409 7.81575 15.6169 7.81575V7.81602ZM8.91388 12.0001C8.91388 10.185 10.3854 8.71343 12.2004 8.71336C14.0155 8.71336 15.4867 10.185 15.4867 12.0001C15.4867 13.8151 14.0157 15.2861 12.2006 15.2861C10.3855 15.2861 8.91388 13.8151 8.91388 12.0001Z" fill="#1E1E1E"/>
<path d="M12.2005 9.8667C13.3786 9.8667 14.3338 10.8218 14.3338 12.0001C14.3338 13.1782 13.3786 14.1334 12.2005 14.1334C11.0222 14.1334 10.0671 13.1782 10.0671 12.0001C10.0671 10.8218 11.0222 9.8667 12.2005 9.8667Z" fill="#1E1E1E"/>
</svg>
