<svg width="80" height="80" viewBox="0 0 80 80" fill="none" xmlns="http://www.w3.org/2000/svg">
<path d="M62.2237 36.8784L26.6227 1.27804C25.7993 0.45398 24.7001 0 23.5281 0C22.3561 0 21.2569 0.45398 20.4335 1.27804L17.8117 3.89915C16.1057 5.60711 16.1057 8.38302 17.8117 10.0884L47.7067 39.9834L17.7785 69.9116C16.9551 70.7357 16.5005 71.8342 16.5005 73.0056C16.5005 74.1783 16.9551 75.2768 17.7785 76.1015L20.4003 78.722C21.2244 79.546 22.3229 80 23.4949 80C24.6669 80 25.7661 79.546 26.5895 78.722L62.2237 43.0891C63.0491 42.2624 63.5024 41.1587 63.4998 39.9854C63.5024 38.8075 63.0491 37.7044 62.2237 36.8784Z" fill="white" fill-opacity="0.8"/>
</svg>
