<svg width="1342" height="275" viewBox="0 0 1342 275" fill="none" xmlns="http://www.w3.org/2000/svg">
<path d="M1335.54 0.062006C1335.54 0.062006 1249.6 -1.38652 1187.31 9.71886C1163.17 14.0644 1162.69 19.3758 1162.69 30.964V150.226C1162.69 152.64 1165.58 154.572 1169.93 154.572H1193.59C1197.93 154.572 1200.35 152.64 1200.35 150.226V93.7336L1325.4 91.8021C1328.78 91.8021 1331.2 90.3536 1331.2 88.4223V77.7997C1331.2 75.8684 1328.78 74.4198 1325.4 74.4198L1200.35 76.3512V26.6184C1252.49 16.9615 1336.03 17.9272 1336.03 17.9272C1339.41 17.9272 1341.82 16.4787 1341.82 14.5473V3.92476C1341.34 1.51055 1338.92 0.062006 1335.54 0.062006ZM911.125 77.7997C911.125 35.3096 892.777 0.062006 795.242 0.062006C698.191 0.062006 679.36 35.3096 679.36 77.7997C679.36 119.807 698.191 155.055 795.242 155.055C892.777 154.572 911.125 119.807 911.125 77.7997ZM872.497 77.7997C872.497 113.047 862.357 137.189 795.242 137.189C728.127 137.189 717.987 113.53 717.987 77.7997C717.987 42.0694 728.127 18.41 795.242 18.41C862.357 17.9272 872.497 42.0694 872.497 77.7997ZM1110.06 135.741L1056.46 137.672C1027.01 137.189 1002.38 133.327 996.588 132.361V4.89043C996.588 1.02769 995.622 0.062006 991.759 0.062006H965.203C961.823 0.062006 959.892 1.51053 959.892 4.89043V127.05C959.892 138.638 959.892 144.915 992.242 150.226C1044.39 158.434 1109.57 153.123 1109.57 153.123C1112.95 153.123 1115.37 151.675 1115.37 149.743V139.121C1116.33 137.189 1113.92 135.741 1110.06 135.741ZM639.767 75.3855C639.284 24.2042 612.728 0.062006 523.885 0.062006C490.086 0.062006 471.255 2.47622 456.287 4.89043C423.936 9.71886 423.936 17.4444 423.936 28.0669V127.05C423.936 137.672 423.936 145.398 456.287 150.226C471.737 152.64 490.086 155.055 523.885 155.055C613.693 155.055 639.767 130.43 639.767 77.3169V75.3855ZM601.622 75.3855C601.622 75.8684 601.622 76.834 601.622 77.3169C601.622 130.43 569.755 136.707 522.436 136.707C492.017 136.707 465.943 132.361 460.149 131.395V22.7556C465.943 21.7899 491.534 17.4444 522.436 17.4444C569.272 17.4444 601.139 23.7213 601.622 75.3855ZM366.961 96.1478V4.89043C366.961 1.02769 365.995 0.062006 361.649 0.062006H334.127C329.782 0.062006 329.299 2.95909 329.299 5.37331V98.0791C329.299 119.324 324.47 137.189 264.115 137.189C213.899 137.189 198.448 125.601 198.448 99.0448V5.37331C198.448 1.51056 197.483 0.062006 193.62 0.062006H166.581C163.201 0.062006 161.752 1.02769 161.752 4.89043V96.6306C161.752 133.809 182.032 154.572 263.632 154.572C360.684 154.572 366.961 123.67 366.961 96.1478ZM122.159 15.9958V4.40764C122.159 0.544893 117.814 0.062006 115.882 0.062006H104.294C82.0833 0.062006 40.076 3.92479 19.7966 9.23606C3.86277 13.5816 0 17.4444 0 29.5154V150.226C0 152.64 2.41423 154.572 6.27697 154.572H29.9363C34.2819 154.572 36.2132 152.64 36.2132 150.226V24.687C62.2867 20.8243 87.3946 19.3757 117.814 19.3757C121.194 19.8586 122.159 17.4444 122.159 15.9958Z" fill="#90D125"/>
<path d="M1087.37 201.407H1100.89L1087.37 272.868H1073.85L1087.37 201.407ZM1045.84 265.143L1048.26 251.623H1040.53C1036.67 251.623 1034.25 252.106 1032.32 253.072C1030.39 254.037 1028.94 255.969 1028.46 258.866V260.797C1028.46 262.246 1028.94 263.211 1029.42 263.694C1029.91 264.66 1030.87 265.143 1031.84 265.143C1032.8 265.626 1033.77 265.625 1034.74 265.625C1035.7 265.625 1036.67 265.625 1038.12 265.625C1040.53 265.625 1042.94 265.626 1045.84 265.143ZM1064.19 238.586L1057.91 272.868C1051.15 273.834 1044.39 274.317 1038.12 274.317H1034.74C1031.84 274.317 1029.91 274.317 1027.98 273.834C1026.04 273.351 1024.11 272.868 1021.7 272.385C1019.29 271.42 1017.84 270.454 1016.39 268.523C1015.42 266.591 1014.46 264.66 1014.46 262.246C1014.46 258.866 1014.94 255.969 1016.39 253.554C1017.84 251.14 1019.29 249.209 1021.22 247.76C1023.15 246.312 1025.56 245.346 1028.46 244.863C1031.36 243.898 1034.25 243.415 1036.67 243.415C1039.08 243.415 1041.98 242.932 1045.36 242.932H1050.19L1050.67 240.035C1050.67 239.069 1051.15 238.103 1051.15 237.138C1051.15 235.689 1050.67 234.724 1050.19 233.758C1049.7 232.792 1048.74 232.309 1047.29 232.309C1045.84 231.827 1044.88 231.826 1043.91 231.826C1042.94 231.826 1041.98 231.826 1040.53 231.826C1034.74 231.826 1028.94 232.309 1023.63 233.758L1025.56 224.101C1030.87 222.653 1037.15 222.17 1043.43 222.17C1045.36 222.17 1046.81 222.17 1048.26 222.17C1049.7 222.17 1051.15 222.17 1053.08 222.652C1055.02 223.135 1056.46 223.135 1057.91 224.101C1059.36 224.584 1060.33 225.55 1061.78 226.032C1063.22 226.998 1063.71 227.964 1064.67 229.412C1065.16 230.861 1065.64 232.792 1065.64 234.241C1064.67 235.689 1064.67 236.655 1064.19 238.586ZM1013.01 223.618L1011.08 232.792C1007.7 232.309 1004.8 232.309 1001.9 232.309C995.626 232.309 990.797 233.758 986.935 236.172C983.555 238.586 981.141 242.932 980.175 248.726C979.692 250.657 979.692 252.106 979.692 253.554C979.692 255.969 980.175 257.9 981.141 259.349C982.106 260.797 983.072 262.246 985.003 262.728C986.452 263.694 988.383 264.177 989.832 264.177C991.763 264.66 993.695 264.66 995.626 264.66C998.523 264.66 1001.9 264.177 1005.28 263.694L1003.35 272.868C999.006 273.834 994.177 274.317 988.866 274.317C982.106 274.317 976.312 272.385 971.967 269.005C967.621 265.625 965.207 260.314 965.207 253.554C965.207 244.38 968.587 236.655 974.864 230.378C981.141 224.584 988.866 221.204 998.523 221.204C1004.32 222.17 1009.15 222.652 1013.01 223.618ZM948.79 201.407H962.31L959.896 213.961H946.376L948.79 201.407ZM944.927 223.135H958.447L948.79 273.351H935.271L944.927 223.135ZM907.266 263.694L913.06 232.309C911.128 231.827 908.714 231.826 905.817 231.826C900.989 231.826 897.609 233.275 894.712 236.655C892.298 239.552 890.366 243.898 889.4 248.726C888.918 250.657 888.918 252.106 888.918 253.554C888.918 256.934 889.883 259.831 891.332 261.763C893.263 263.694 895.677 264.66 898.574 264.66C901.471 264.177 903.886 264.177 907.266 263.694ZM918.854 201.407H932.373L918.854 271.902C913.06 273.351 906.783 273.834 899.057 273.834C892.298 273.834 886.503 272.385 882.158 269.005C877.812 265.625 875.398 260.797 875.398 254.037C875.398 244.863 878.295 237.621 884.572 231.344C890.366 225.067 898.092 222.17 906.783 222.17C909.197 222.17 911.611 222.17 914.991 222.652L918.854 201.407ZM830.976 243.415H851.739C852.221 241.483 852.221 240.035 852.221 238.586C852.221 233.275 849.325 230.378 844.013 230.378C840.633 230.378 837.736 231.826 835.322 234.241C833.391 236.655 831.942 240.035 830.976 243.415ZM864.775 252.106H829.528V254.52C829.528 261.763 834.356 265.625 844.496 265.625C848.359 265.625 853.187 265.143 858.981 263.694L857.533 272.385C853.187 273.834 846.91 274.317 839.668 274.317C832.425 274.317 826.631 272.868 822.285 269.971C817.94 267.074 816.008 262.246 816.008 255.486C816.008 245.829 818.905 238.103 824.7 231.826C830.494 225.55 837.736 222.17 846.91 222.17C853.67 222.17 858.498 223.618 861.878 226.032C865.258 228.929 866.707 233.275 866.707 239.552C866.224 243.415 865.741 247.277 864.775 252.106ZM804.903 238.103L798.143 273.351H784.623L790.901 240.518V238.586C790.901 235.206 788.969 233.275 785.106 233.275C781.244 233.275 778.347 233.758 774.967 235.206L767.724 273.351H754.204L760.481 240.518V238.103C760.481 234.724 758.55 232.792 754.687 232.792C752.273 232.792 749.376 233.275 745.513 234.724L738.271 272.868H724.751L733.442 227.481C741.65 225.55 751.79 222.17 758.55 222.17C760.481 222.17 766.275 222.17 768.207 223.135C770.138 224.101 771.587 225.067 772.552 226.998C780.278 223.618 786.555 221.687 790.901 221.687C794.763 221.687 798.143 222.652 800.557 224.584C802.972 226.515 804.42 229.412 804.42 233.275C805.386 235.689 804.903 237.138 804.903 238.103ZM1310.44 210.581L1298.85 271.902C1286.78 273.351 1274.71 274.317 1263.6 274.317H1257.81C1252.98 274.317 1249.12 274.317 1245.26 273.834C1241.88 273.351 1238.01 272.385 1234.15 270.937C1230.29 269.488 1226.91 267.557 1224.98 264.177C1223.04 261.28 1221.6 257.417 1221.6 252.589C1221.6 246.312 1222.56 241.483 1224.98 236.655C1227.39 232.309 1230.29 228.929 1233.67 226.515C1237.05 224.101 1241.39 222.17 1246.7 220.721C1252.02 219.273 1256.84 218.307 1261.19 218.307C1265.54 217.824 1270.85 217.824 1276.64 217.824H1285.33L1286.3 212.513C1286.78 210.581 1286.78 208.65 1286.78 207.202C1286.78 204.787 1286.3 202.856 1284.85 201.407C1283.88 199.959 1281.95 198.993 1279.54 198.51C1277.12 198.028 1275.19 197.545 1273.74 197.545C1272.29 197.545 1269.88 197.062 1267.47 197.062C1256.84 197.062 1246.7 198.027 1237.05 200.442L1240.43 183.542C1250.08 181.611 1260.71 180.162 1272.29 180.162C1275.67 180.162 1278.57 180.162 1280.99 180.162C1283.4 180.162 1286.3 180.645 1289.68 181.128C1293.06 181.611 1295.95 182.094 1298.37 183.542C1300.78 184.508 1303.2 185.956 1305.13 187.405C1307.06 188.853 1308.99 191.268 1309.96 193.682C1310.92 196.096 1311.89 199.476 1311.89 202.856C1311.41 204.304 1310.92 207.202 1310.44 210.581ZM1277.61 257.417L1282.43 233.275H1268.43C1261.67 233.275 1256.84 234.241 1253.95 235.689C1250.57 237.621 1248.15 241.001 1247.67 245.829L1247.19 249.209C1247.19 251.14 1247.67 253.072 1248.64 254.52C1249.6 255.969 1251.05 256.934 1252.98 257.417C1254.91 257.9 1256.84 258.383 1257.81 258.383C1259.26 258.383 1261.19 258.383 1263.6 258.383C1267.95 258.383 1272.78 258.383 1277.61 257.417ZM1218.22 234.241H1154.96L1154.48 238.586C1154.48 252.106 1163.17 258.866 1181.04 258.866C1187.8 258.866 1196.49 257.9 1207.11 255.969L1204.21 271.42C1196.01 273.834 1185.38 274.8 1172.35 274.8C1159.31 274.8 1149.17 271.902 1141.44 266.591C1133.72 261.28 1129.86 252.589 1129.86 240.518C1129.86 223.618 1134.68 209.133 1144.82 197.545C1154.96 185.956 1168.48 180.645 1184.9 180.645C1196.49 180.645 1205.66 183.059 1211.46 187.888C1217.73 192.716 1220.63 200.925 1220.63 212.513C1220.63 218.307 1219.67 225.55 1218.22 234.241ZM1157.86 218.79H1195.04C1195.52 214.927 1196.01 212.513 1196.01 210.581C1196.01 200.925 1191.18 196.096 1181.04 196.096C1174.76 196.096 1169.45 198.028 1165.59 202.373C1161.72 206.719 1159.31 212.513 1157.86 218.79Z" fill="#D8D8D8"/>
</svg>
