<svg width="25" height="24" viewBox="0 0 25 24" fill="none" xmlns="http://www.w3.org/2000/svg">
<path fill-rule="evenodd" clip-rule="evenodd" d="M0.199951 12C0.199951 18.6274 5.57253 24 12.2 24C18.8274 24 24.2 18.6274 24.2 12C24.2 5.37258 18.8274 0 12.2 0C5.57253 0 0.199951 5.37258 0.199951 12ZM19.731 11.5408C19.7294 15.4741 16.5297 18.6747 12.5955 18.6763H12.5925C11.3983 18.6758 10.2249 18.3762 9.18262 17.8077L5.39995 18.8L6.41226 15.1024C5.78782 14.0203 5.45924 12.7927 5.45978 11.5351C5.46134 7.60085 8.66236 4.4 12.5954 4.4C14.5043 4.40082 16.2959 5.14393 17.6431 6.49271C18.9902 7.84141 19.7318 9.63417 19.731 11.5408Z" fill="#1E1E1E"/>
<path fill-rule="evenodd" clip-rule="evenodd" d="M7.1132 17.1048L9.3579 16.5159L9.57446 16.6445C10.4851 17.1848 11.5289 17.4708 12.5931 17.4712H12.5955C15.8644 17.4712 18.5249 14.8106 18.5262 11.5403C18.5268 9.95561 17.9105 8.46555 16.7908 7.3445C15.6711 6.22345 14.182 5.60577 12.5978 5.60522C9.32643 5.60522 6.66585 8.26556 6.66455 11.5355C6.66409 12.6562 6.97765 13.7476 7.57133 14.6918L7.71235 14.9162L7.1132 17.1048ZM15.9462 13.077C16.0705 13.1371 16.1545 13.1777 16.1904 13.2376C16.2349 13.3119 16.2349 13.6689 16.0864 14.0854C15.9378 14.5019 15.2255 14.882 14.8829 14.9332C14.5757 14.9791 14.187 14.9983 13.7599 14.8625C13.501 14.7804 13.1689 14.6707 12.7435 14.4869C11.072 13.7652 9.94248 12.1452 9.72899 11.839C9.71403 11.8176 9.70357 11.8026 9.69774 11.7948L9.6963 11.7929C9.60194 11.667 8.96972 10.8234 8.96972 9.95039C8.96972 9.12913 9.37314 8.69866 9.55883 8.50051C9.57156 8.48694 9.58326 8.47445 9.59374 8.46301C9.75716 8.28451 9.95033 8.23988 10.0692 8.23988C10.188 8.23988 10.307 8.24098 10.4109 8.2462C10.4237 8.24684 10.4371 8.24676 10.4508 8.24668C10.5547 8.24607 10.6843 8.24532 10.8121 8.55226C10.8612 8.67038 10.9331 8.84548 11.009 9.03017C11.1624 9.40369 11.3319 9.81639 11.3618 9.87611C11.4063 9.96536 11.4361 10.0694 11.3766 10.1885C11.3677 10.2063 11.3595 10.2232 11.3516 10.2393C11.3069 10.3304 11.2741 10.3974 11.1983 10.4859C11.1685 10.5207 11.1378 10.5582 11.107 10.5957C11.0456 10.6704 10.9843 10.7451 10.9309 10.7983C10.8416 10.8872 10.7487 10.9836 10.8527 11.1621C10.9567 11.3406 11.3145 11.9245 11.8446 12.3972C12.4143 12.9055 12.9095 13.1203 13.1605 13.2291C13.2096 13.2504 13.2493 13.2676 13.2784 13.2822C13.4566 13.3715 13.5606 13.3565 13.6646 13.2376C13.7687 13.1186 14.1103 12.7169 14.2292 12.5385C14.348 12.36 14.4669 12.3898 14.6303 12.4492C14.7938 12.5088 15.6704 12.9401 15.8487 13.0293C15.8835 13.0467 15.916 13.0625 15.9462 13.077Z" fill="#1E1E1E"/>
</svg>
