<svg width="48" height="49" viewBox="0 0 48 49" fill="none" xmlns="http://www.w3.org/2000/svg">
<path fill-rule="evenodd" clip-rule="evenodd" d="M0 24.5C0 37.7548 10.7452 48.5 24 48.5C37.2548 48.5 48 37.7548 48 24.5C48 11.2452 37.2548 0.5 24 0.5C10.7452 0.5 0 11.2452 0 24.5ZM39.0621 23.5815C39.059 31.4483 32.6595 37.8493 24.7911 37.8525H24.7852C22.3967 37.8517 20.0498 37.2524 17.9653 36.1155L10.4 38.1L12.4246 30.7048C11.1757 28.5405 10.5186 26.0855 10.5196 23.5702C10.5228 15.7017 16.9248 9.3 24.7909 9.3C28.6086 9.30165 32.1918 10.7879 34.8862 13.4854C37.5806 16.1828 39.0637 19.7683 39.0621 23.5815Z" fill="#90D125"/>
<path fill-rule="evenodd" clip-rule="evenodd" d="M13.8265 34.7096L18.3159 33.5319L18.749 33.789C20.5702 34.8697 22.6578 35.4415 24.7863 35.4424H24.7911C31.3289 35.4424 36.65 30.1212 36.6526 23.5807C36.6538 20.4112 35.4212 17.4311 33.1817 15.189C30.9422 12.9469 27.964 11.7115 24.7958 11.7104C18.2529 11.7104 12.9318 17.0311 12.9292 23.5711C12.9283 25.8124 13.5554 27.9951 14.7428 29.8836L15.0248 30.3324L13.8265 34.7096ZM31.4924 26.6541C31.7411 26.7743 31.9091 26.8554 31.9808 26.9751C32.0699 27.1238 32.0699 27.8378 31.7729 28.6709C31.4756 29.5038 30.0511 30.264 29.3659 30.3663C28.7516 30.4582 27.9742 30.4965 27.12 30.225C26.602 30.0607 25.9379 29.8413 25.0871 29.4739C21.7442 28.0304 19.4851 24.7904 19.0581 24.178C19.0282 24.1351 19.0072 24.1051 18.9956 24.0896L18.9927 24.0857C18.804 23.8339 17.5395 22.1468 17.5395 20.4008C17.5395 18.7583 18.3464 17.8973 18.7178 17.501C18.7432 17.4739 18.7666 17.4489 18.7876 17.426C19.1144 17.069 19.5008 16.9798 19.7385 16.9798C19.9762 16.9798 20.2141 16.982 20.4219 16.9924C20.4475 16.9937 20.4742 16.9935 20.5018 16.9934C20.7096 16.9921 20.9686 16.9906 21.2242 17.6045C21.3225 17.8408 21.4664 18.191 21.6181 18.5604C21.925 19.3074 22.264 20.1328 22.3236 20.2522C22.4128 20.4307 22.4722 20.6389 22.3534 20.877C22.3355 20.9127 22.319 20.9464 22.3032 20.9785C22.214 21.1608 22.1483 21.2949 21.9968 21.4718C21.9372 21.5414 21.8756 21.6163 21.814 21.6913C21.6914 21.8407 21.5687 21.9901 21.4619 22.0965C21.2834 22.2743 21.0975 22.4673 21.3055 22.8243C21.5136 23.1813 22.2292 24.3489 23.2893 25.2945C24.4288 26.3109 25.4192 26.7405 25.9212 26.9583C26.0192 27.0008 26.0986 27.0352 26.1569 27.0644C26.5133 27.2429 26.7214 27.2131 26.9294 26.9751C27.1374 26.7372 27.8208 25.9339 28.0585 25.5769C28.2962 25.2201 28.534 25.2795 28.8608 25.3985C29.1877 25.5176 30.9408 26.3801 31.2974 26.5586C31.367 26.5935 31.4321 26.6249 31.4924 26.6541Z" fill="#90D125"/>
</svg>
