<svg width="24" height="25" viewBox="0 0 24 25" fill="none" xmlns="http://www.w3.org/2000/svg">
<path fill-rule="evenodd" clip-rule="evenodd" d="M12 0.799805C5.37258 0.799805 0 6.17239 0 12.7998C0 19.4272 5.37258 24.7998 12 24.7998C18.6274 24.7998 24 19.4272 24 12.7998C24 6.17239 18.6274 0.799805 12 0.799805ZM9.36164 6.43847C10.0443 6.4074 10.2624 6.3998 12.0006 6.3998H11.9986C13.7373 6.3998 13.9546 6.4074 14.6373 6.43847C15.3186 6.46967 15.784 6.57754 16.192 6.73581C16.6133 6.89914 16.9693 7.11781 17.3253 7.47382C17.6813 7.82955 17.9 8.18662 18.064 8.60756C18.2213 9.0145 18.3293 9.47957 18.3613 10.1609C18.392 10.8436 18.4 11.0617 18.4 12.7999C18.4 14.538 18.392 14.7556 18.3613 15.4383C18.3293 16.1194 18.2213 16.5846 18.064 16.9916C17.9 17.4125 17.6813 17.7695 17.3253 18.1253C16.9697 18.4813 16.6132 18.7005 16.1924 18.8639C15.7852 19.0222 15.3196 19.1301 14.6382 19.1613C13.9556 19.1923 13.7381 19.1999 11.9998 19.1999C10.2618 19.1999 10.0438 19.1923 9.36111 19.1613C8.6799 19.1301 8.21469 19.0222 7.80749 18.8639C7.38682 18.7005 7.02975 18.4813 6.67414 18.1253C6.31827 17.7695 6.09961 17.4125 5.936 16.9915C5.77787 16.5846 5.67 16.1195 5.63867 15.4382C5.60773 14.7555 5.6 14.538 5.6 12.7999C5.6 11.0617 5.608 10.8435 5.63853 10.1608C5.6692 9.4797 5.7772 9.0145 5.93587 8.60743C6.09987 8.18662 6.31854 7.82955 6.67454 7.47382C7.03028 7.11795 7.38735 6.89928 7.80829 6.73581C8.21523 6.57754 8.6803 6.46967 9.36164 6.43847Z" fill="#989898"/>
<path fill-rule="evenodd" clip-rule="evenodd" d="M11.4265 7.55311C11.538 7.55294 11.6579 7.55299 11.7873 7.55305L12.0006 7.55311C13.7094 7.55311 13.912 7.55925 14.5868 7.58991C15.2108 7.61845 15.5495 7.72272 15.7751 7.81032C16.0737 7.92632 16.2867 8.06499 16.5105 8.28899C16.7345 8.51299 16.8732 8.72633 16.9895 9.025C17.0771 9.25033 17.1815 9.589 17.2099 10.213C17.2405 10.8877 17.2472 11.0904 17.2472 12.7984C17.2472 14.5064 17.2405 14.7091 17.2099 15.3837C17.1813 16.0077 17.0771 16.3464 16.9895 16.5717C16.8735 16.8704 16.7345 17.0831 16.5105 17.3069C16.2865 17.531 16.0739 17.6696 15.7751 17.7856C15.5497 17.8736 15.2108 17.9776 14.5868 18.0062C13.9121 18.0368 13.7094 18.0435 12.0006 18.0435C10.2917 18.0435 10.0891 18.0368 9.41447 18.0062C8.79046 17.9774 8.45179 17.8731 8.22605 17.7855C7.92739 17.6695 7.71405 17.5308 7.49005 17.3068C7.26604 17.0828 7.12738 16.87 7.01111 16.5712C6.92351 16.3459 6.81911 16.0072 6.79071 15.3832C6.76004 14.7085 6.75391 14.5059 6.75391 12.7968C6.75391 11.0877 6.76004 10.8861 6.79071 10.2114C6.81924 9.5874 6.92351 9.24873 7.01111 9.02313C7.12711 8.72446 7.26604 8.51112 7.49005 8.28712C7.71405 8.06312 7.92739 7.92445 8.22605 7.80818C8.45166 7.72018 8.79046 7.61618 9.41447 7.58751C10.0049 7.56085 10.2337 7.55285 11.4265 7.55151V7.55311ZM15.4169 8.61579C14.9929 8.61579 14.6489 8.9594 14.6489 9.38353C14.6489 9.80754 14.9929 10.1515 15.4169 10.1515C15.8409 10.1515 16.1849 9.80754 16.1849 9.38353C16.1849 8.95953 15.8409 8.61552 15.4169 8.61552V8.61579ZM8.71393 12.7998C8.71393 10.9848 10.1855 9.51321 12.0005 9.51313C13.8156 9.51313 15.2868 10.9847 15.2868 12.7998C15.2868 14.6149 13.8157 16.0859 12.0006 16.0859C10.1855 16.0859 8.71393 14.6149 8.71393 12.7998Z" fill="#989898"/>
<path d="M12.0005 10.6665C13.1787 10.6665 14.1339 11.6216 14.1339 12.7999C14.1339 13.978 13.1787 14.9332 12.0005 14.9332C10.8223 14.9332 9.86719 13.978 9.86719 12.7999C9.86719 11.6216 10.8223 10.6665 12.0005 10.6665Z" fill="#989898"/>
</svg>
