<svg width="24" height="25" viewBox="0 0 24 25" fill="none" xmlns="http://www.w3.org/2000/svg">
<path fill-rule="evenodd" clip-rule="evenodd" d="M0 12.7998C0 19.4272 5.37258 24.7998 12 24.7998C18.6274 24.7998 24 19.4272 24 12.7998C24 6.17239 18.6274 0.799805 12 0.799805C5.37258 0.799805 0 6.17239 0 12.7998ZM19.5311 12.3406C19.5295 16.2739 16.3297 19.4745 12.3955 19.4761H12.3926C11.1984 19.4757 10.0249 19.176 8.98267 18.6075L5.2 19.5998L6.21231 15.9022C5.58787 14.8201 5.25929 13.5925 5.25982 12.3349C5.26139 8.40065 8.46241 5.1998 12.3955 5.1998C14.3043 5.20063 16.0959 5.94374 17.4431 7.29251C18.7903 8.64121 19.5318 10.434 19.5311 12.3406Z" fill="#90D125"/>
<path fill-rule="evenodd" clip-rule="evenodd" d="M6.91325 17.9046L9.15794 17.3158L9.37451 17.4443C10.2851 17.9846 11.3289 18.2706 12.3931 18.271H12.3955C15.6644 18.271 18.325 15.6104 18.3263 12.3402C18.3269 10.7554 17.7106 9.26535 16.5908 8.1443C15.4711 7.02326 13.982 6.40558 12.3979 6.40503C9.12647 6.40503 6.4659 9.06536 6.4646 12.3353C6.46414 13.456 6.7777 14.5474 7.37138 15.4916L7.5124 15.716L6.91325 17.9046ZM15.7462 13.8768C15.8706 13.9369 15.9545 13.9775 15.9904 14.0374C16.035 14.1117 16.035 14.4687 15.8865 14.8852C15.7378 15.3017 15.0255 15.6818 14.683 15.733C14.3758 15.7789 13.9871 15.7981 13.56 15.6623C13.301 15.5802 12.9689 15.4705 12.5436 15.2868C10.8721 14.565 9.74253 12.945 9.52904 12.6388C9.51408 12.6174 9.50362 12.6024 9.49779 12.5946L9.49635 12.5927C9.40199 12.4668 8.76977 11.6232 8.76977 10.7502C8.76977 9.92893 9.17319 9.49846 9.35888 9.30032C9.37161 9.28674 9.38331 9.27426 9.39378 9.26281C9.55721 9.08431 9.75038 9.03969 9.86923 9.03969C9.98808 9.03969 10.1071 9.04079 10.2109 9.046C10.2238 9.04665 10.2371 9.04657 10.2509 9.04649C10.3548 9.04588 10.4843 9.04512 10.6121 9.35206C10.6613 9.47018 10.7332 9.64529 10.809 9.82998C10.9625 10.2035 11.132 10.6162 11.1618 10.6759C11.2064 10.7652 11.2361 10.8692 11.1767 10.9883C11.1678 11.0061 11.1595 11.023 11.1516 11.0391C11.107 11.1302 11.0741 11.1972 10.9984 11.2857C10.9686 11.3205 10.9378 11.358 10.907 11.3955C10.8457 11.4702 10.7843 11.5449 10.7309 11.5981C10.6417 11.687 10.5488 11.7834 10.6528 11.9619C10.7568 12.1404 11.1146 12.7243 11.6446 13.1971C12.2144 13.7053 12.7096 13.9201 12.9606 14.0289C13.0096 14.0502 13.0493 14.0674 13.0784 14.082C13.2567 14.1713 13.3607 14.1563 13.4647 14.0374C13.5687 13.9184 13.9104 13.5167 14.0292 13.3383C14.1481 13.1598 14.267 13.1896 14.4304 13.249C14.5938 13.3086 15.4704 13.7399 15.6487 13.8291C15.6835 13.8465 15.7161 13.8623 15.7462 13.8768Z" fill="#90D125"/>
</svg>
