<svg width="125" height="26" viewBox="0 0 125 26" fill="none" xmlns="http://www.w3.org/2000/svg">
<path d="M124.415 0.206002C124.415 0.206002 116.409 0.0710616 110.606 1.10561C108.357 1.51043 108.312 2.00521 108.312 3.08474V14.1948C108.312 14.4198 108.582 14.5997 108.987 14.5997H111.191C111.596 14.5997 111.821 14.4198 111.821 14.1948V8.93217L123.471 8.75224C123.786 8.75224 124.01 8.6173 124.01 8.43738V7.44782C124.01 7.2679 123.786 7.13296 123.471 7.13296L111.821 7.31288V2.67991C116.679 1.78031 124.46 1.87027 124.46 1.87027C124.775 1.87027 125 1.73533 125 1.55541V0.565845C124.955 0.340944 124.73 0.206002 124.415 0.206002ZM84.8777 7.44782C84.8777 3.48956 83.1684 0.206002 74.0824 0.206002C65.0414 0.206002 63.2872 3.48956 63.2872 7.44782C63.2872 11.3611 65.0414 14.6447 74.0824 14.6447C83.1684 14.5997 84.8777 11.3611 84.8777 7.44782ZM81.2792 7.44782C81.2792 10.7314 80.3347 12.9804 74.0824 12.9804C67.8302 12.9804 66.8856 10.7764 66.8856 7.44782C66.8856 4.11928 67.8302 1.91525 74.0824 1.91525C80.3347 1.87027 81.2792 4.11928 81.2792 7.44782ZM103.41 12.8454L98.4167 13.0254C95.6729 12.9804 93.3789 12.6205 92.8391 12.5306V0.655804C92.8391 0.295963 92.7492 0.206002 92.3894 0.206002H89.9154C89.6006 0.206002 89.4207 0.340943 89.4207 0.655804V12.0358C89.4207 13.1153 89.4207 13.7001 92.4343 14.1948C97.2922 14.9595 103.365 14.4647 103.365 14.4647C103.679 14.4647 103.904 14.3298 103.904 14.1499V13.1603C103.994 12.9804 103.769 12.8454 103.41 12.8454ZM59.5988 7.22292C59.5538 2.45502 57.0799 0.206002 48.8035 0.206002C45.6549 0.206002 43.9007 0.430903 42.5063 0.655804C39.4926 1.10561 39.4926 1.82529 39.4926 2.81486V12.0358C39.4926 13.0254 39.4926 13.745 42.5063 14.1948C43.9457 14.4198 45.6549 14.6447 48.8035 14.6447C57.1698 14.6447 59.5988 12.3507 59.5988 7.40284V7.22292ZM56.0453 7.22292C56.0453 7.2679 56.0453 7.35786 56.0453 7.40284C56.0453 12.3507 53.0767 12.9354 48.6686 12.9354C45.8348 12.9354 43.4059 12.5306 42.8661 12.4406V2.32007C43.4059 2.23011 45.7899 1.82529 48.6686 1.82529C53.0317 1.82529 56.0004 2.41004 56.0453 7.22292ZM34.185 9.15707V0.655804C34.185 0.295963 34.095 0.206002 33.6902 0.206002H31.1263C30.7215 0.206002 30.6765 0.475886 30.6765 0.700787V9.33699C30.6765 11.3161 30.2267 12.9804 24.6042 12.9804C19.9262 12.9804 18.4869 11.9009 18.4869 9.42695V0.700787C18.4869 0.340945 18.3969 0.206002 18.0371 0.206002H15.5182C15.2033 0.206002 15.0684 0.295963 15.0684 0.655804V9.20204C15.0684 12.6655 16.9575 14.5997 24.5592 14.5997C33.6002 14.5997 34.185 11.7209 34.185 9.15707ZM11.38 1.69035V0.610828C11.38 0.250986 10.9752 0.206002 10.7952 0.206002H9.71573C7.64664 0.206002 3.73336 0.565848 1.84419 1.06063C0.359844 1.46545 0 1.82529 0 2.9498V14.1948C0 14.4198 0.224902 14.5997 0.584744 14.5997H2.78878C3.1936 14.5997 3.37352 14.4198 3.37352 14.1948V2.5C5.80245 2.14015 8.14142 2.00521 10.9752 2.00521C11.29 2.05019 11.38 1.82529 11.38 1.69035Z" fill="#90D125"/>
<path d="M101.295 18.9628H102.555L101.295 25.6198H100.036L101.295 18.9628ZM97.427 24.9002L97.6519 23.6407H96.9322C96.5724 23.6407 96.3475 23.6857 96.1675 23.7757C95.9876 23.8656 95.8527 24.0455 95.8077 24.3154V24.4953C95.8077 24.6303 95.8527 24.7202 95.8977 24.7652C95.9426 24.8552 96.0326 24.9002 96.1226 24.9002C96.2125 24.9451 96.3025 24.9451 96.3924 24.9451C96.4824 24.9451 96.5724 24.9451 96.7073 24.9451C96.9322 24.9451 97.1571 24.9451 97.427 24.9002ZM99.1362 22.4263L98.5515 25.6198C97.9218 25.7098 97.292 25.7548 96.7073 25.7548H96.3924C96.1226 25.7548 95.9426 25.7548 95.7627 25.7098C95.5828 25.6648 95.4029 25.6198 95.178 25.5749C94.9531 25.4849 94.8181 25.3949 94.6832 25.215C94.5932 25.0351 94.5033 24.8552 94.5033 24.6303C94.5033 24.3154 94.5482 24.0455 94.6832 23.8206C94.8181 23.5957 94.9531 23.4158 95.133 23.2809C95.3129 23.1459 95.5378 23.056 95.8077 23.011C96.0776 22.921 96.3475 22.8761 96.5724 22.8761C96.7973 22.8761 97.0671 22.8311 97.382 22.8311H97.8318L97.8768 22.5612C97.8768 22.4712 97.9218 22.3813 97.9218 22.2913C97.9218 22.1564 97.8768 22.0664 97.8318 21.9764C97.7868 21.8865 97.6969 21.8415 97.5619 21.8415C97.427 21.7965 97.337 21.7965 97.2471 21.7965C97.1571 21.7965 97.0671 21.7965 96.9322 21.7965C96.3924 21.7965 95.8527 21.8415 95.3579 21.9764L95.5378 21.0768C96.0326 20.9419 96.6173 20.8969 97.2021 20.8969C97.382 20.8969 97.5169 20.8969 97.6519 20.8969C97.7868 20.8969 97.9218 20.8969 98.1017 20.9419C98.2816 20.9869 98.4165 20.9869 98.5515 21.0768C98.6864 21.1218 98.7764 21.2118 98.9113 21.2568C99.0463 21.3467 99.0912 21.4367 99.1812 21.5716C99.2262 21.7066 99.2712 21.8865 99.2712 22.0214C99.1812 22.1564 99.1812 22.2463 99.1362 22.4263ZM94.3683 21.0319L94.1884 21.8865C93.8735 21.8415 93.6037 21.8415 93.3338 21.8415C92.749 21.8415 92.2992 21.9764 91.9394 22.2013C91.6245 22.4263 91.3996 22.8311 91.3097 23.3708C91.2647 23.5508 91.2647 23.6857 91.2647 23.8206C91.2647 24.0455 91.3097 24.2255 91.3996 24.3604C91.4896 24.4953 91.5795 24.6303 91.7595 24.6753C91.8944 24.7652 92.0743 24.8102 92.2093 24.8102C92.3892 24.8552 92.5691 24.8552 92.749 24.8552C93.0189 24.8552 93.3338 24.8102 93.6486 24.7652L93.4687 25.6198C93.0639 25.7098 92.6141 25.7548 92.1193 25.7548C91.4896 25.7548 90.9498 25.5749 90.545 25.26C90.1402 24.9451 89.9153 24.4504 89.9153 23.8206C89.9153 22.966 90.2301 22.2463 90.8149 21.6616C91.3996 21.1218 92.1193 20.807 93.0189 20.807C93.5587 20.8969 94.0085 20.9419 94.3683 21.0319ZM88.386 18.9628H89.6454L89.4205 20.1323H88.1611L88.386 18.9628ZM88.0261 20.9869H89.2856L88.386 25.6648H87.1265L88.0261 20.9869ZM84.5177 24.7652L85.0574 21.8415C84.8775 21.7965 84.6526 21.7965 84.3827 21.7965C83.9329 21.7965 83.6181 21.9315 83.3482 22.2463C83.1233 22.5162 82.9434 22.921 82.8534 23.3708C82.8084 23.5508 82.8084 23.6857 82.8084 23.8206C82.8084 24.1355 82.8984 24.4054 83.0333 24.5853C83.2132 24.7652 83.4381 24.8552 83.708 24.8552C83.9779 24.8102 84.2028 24.8102 84.5177 24.7652ZM85.5972 18.9628H86.8566L85.5972 25.5299C85.0574 25.6648 84.4727 25.7098 83.753 25.7098C83.1233 25.7098 82.5835 25.5749 82.1787 25.26C81.7739 24.9451 81.549 24.4953 81.549 23.8656C81.549 23.011 81.8188 22.3363 82.4036 21.7515C82.9434 21.1668 83.663 20.8969 84.4727 20.8969C84.6976 20.8969 84.9225 20.8969 85.2373 20.9419L85.5972 18.9628ZM77.4108 22.8761H79.3449C79.3899 22.6961 79.3899 22.5612 79.3899 22.4263C79.3899 21.9315 79.12 21.6616 78.6253 21.6616C78.3104 21.6616 78.0405 21.7965 77.8156 22.0214C77.6357 22.2463 77.5007 22.5612 77.4108 22.8761ZM80.5594 23.6857H77.2758V23.9106C77.2758 24.5853 77.7256 24.9451 78.6702 24.9451C79.0301 24.9451 79.4799 24.9002 80.0196 24.7652L79.8847 25.5749C79.4799 25.7098 78.8951 25.7548 78.2204 25.7548C77.5457 25.7548 77.006 25.6198 76.6011 25.35C76.1963 25.0801 76.0164 24.6303 76.0164 24.0006C76.0164 23.101 76.2863 22.3813 76.826 21.7965C77.3658 21.2118 78.0405 20.8969 78.8951 20.8969C79.5248 20.8969 79.9747 21.0319 80.2895 21.2568C80.6044 21.5266 80.7393 21.9315 80.7393 22.5162C80.6943 22.8761 80.6494 23.2359 80.5594 23.6857ZM74.9819 22.3813L74.3521 25.6648H73.0927L73.6774 22.6062V22.4263C73.6774 22.1114 73.4975 21.9315 73.1377 21.9315C72.7778 21.9315 72.5079 21.9764 72.1931 22.1114L71.5184 25.6648H70.2589L70.8437 22.6062V22.3813C70.8437 22.0664 70.6638 21.8865 70.3039 21.8865C70.079 21.8865 69.8091 21.9315 69.4493 22.0664L68.7746 25.6198H67.5151L68.3248 21.3917C69.0894 21.2118 70.034 20.8969 70.6638 20.8969C70.8437 20.8969 71.3834 20.8969 71.5634 20.9869C71.7433 21.0768 71.8782 21.1668 71.9682 21.3467C72.6879 21.0319 73.2726 20.8519 73.6774 20.8519C74.0373 20.8519 74.3521 20.9419 74.577 21.1218C74.8019 21.3017 74.9369 21.5716 74.9369 21.9315C75.0268 22.1564 74.9819 22.2913 74.9819 22.3813ZM122.076 19.8174L120.997 25.5299C119.872 25.6648 118.748 25.7548 117.713 25.7548H117.173C116.723 25.7548 116.364 25.7548 116.004 25.7098C115.689 25.6648 115.329 25.5749 114.969 25.4399C114.609 25.305 114.295 25.1251 114.115 24.8102C113.935 24.5403 113.8 24.1805 113.8 23.7307C113.8 23.1459 113.89 22.6961 114.115 22.2463C114.34 21.8415 114.609 21.5266 114.924 21.3017C115.239 21.0768 115.644 20.8969 116.139 20.762C116.634 20.627 117.083 20.5371 117.488 20.5371C117.893 20.4921 118.388 20.4921 118.928 20.4921H119.737L119.827 19.9973C119.872 19.8174 119.872 19.6375 119.872 19.5025C119.872 19.2776 119.827 19.0977 119.692 18.9628C119.602 18.8278 119.422 18.7379 119.197 18.6929C118.972 18.6479 118.793 18.6029 118.658 18.6029C118.523 18.6029 118.298 18.5579 118.073 18.5579C117.083 18.5579 116.139 18.6479 115.239 18.8728L115.554 17.2985C116.454 17.1186 117.443 16.9836 118.523 16.9836C118.838 16.9836 119.107 16.9836 119.332 16.9836C119.557 16.9836 119.827 17.0286 120.142 17.0736C120.457 17.1186 120.727 17.1636 120.952 17.2985C121.177 17.3885 121.401 17.5234 121.581 17.6583C121.761 17.7933 121.941 18.0182 122.031 18.2431C122.121 18.468 122.211 18.7828 122.211 19.0977C122.166 19.2327 122.121 19.5025 122.076 19.8174ZM119.017 24.1805L119.467 21.9315H118.163C117.533 21.9315 117.083 22.0214 116.813 22.1564C116.499 22.3363 116.274 22.6512 116.229 23.101L116.184 23.4158C116.184 23.5957 116.229 23.7757 116.319 23.9106C116.409 24.0455 116.544 24.1355 116.723 24.1805C116.903 24.2255 117.083 24.2704 117.173 24.2704C117.308 24.2704 117.488 24.2704 117.713 24.2704C118.118 24.2704 118.568 24.2704 119.017 24.1805ZM113.485 22.0214H107.593L107.548 22.4263C107.548 23.6857 108.357 24.3154 110.021 24.3154C110.651 24.3154 111.461 24.2255 112.45 24.0455L112.18 25.4849C111.416 25.7098 110.426 25.7998 109.212 25.7998C107.997 25.7998 107.053 25.5299 106.333 25.0351C105.613 24.5403 105.254 23.7307 105.254 22.6062C105.254 21.0319 105.703 19.6825 106.648 18.6029C107.593 17.5234 108.852 17.0286 110.381 17.0286C111.461 17.0286 112.315 17.2535 112.855 17.7033C113.44 18.1531 113.71 18.9178 113.71 19.9973C113.71 20.5371 113.62 21.2118 113.485 22.0214ZM107.862 20.5821H111.326C111.371 20.2222 111.416 19.9973 111.416 19.8174C111.416 18.9178 110.966 18.468 110.021 18.468C109.437 18.468 108.942 18.6479 108.582 19.0527C108.222 19.4576 107.997 19.9973 107.862 20.5821Z" fill="#AEAEAE"/>
</svg>
