<svg width="25" height="24" viewBox="0 0 25 24" fill="none" xmlns="http://www.w3.org/2000/svg">
<path fill-rule="evenodd" clip-rule="evenodd" d="M0.199951 12C0.199951 18.6274 5.57253 24 12.2 24C18.8274 24 24.2 18.6274 24.2 12C24.2 5.37258 18.8274 0 12.2 0C5.57253 0 0.199951 5.37258 0.199951 12ZM9.99994 17.5L10.2041 14.4411L10.2039 14.441L15.7684 9.4195C16.0126 9.20276 15.7151 9.09707 15.3909 9.29366L8.52358 13.6262L5.55728 12.7003C4.91669 12.5042 4.91209 12.064 5.7011 11.7475L17.2601 7.29043C17.788 7.05075 18.2976 7.41723 18.096 8.22525L16.1275 17.5015C15.9901 18.1607 15.5918 18.3184 15.0399 18.0139L12.0413 15.7985L10.5999 17.2C10.5954 17.2044 10.5909 17.2088 10.5864 17.2132C10.4252 17.3701 10.2918 17.5 9.99994 17.5Z" fill="#1E1E1E"/>
</svg>
